<svg xmlns="http://www.w3.org/2000/svg" viewBox="0 0 360 160" role="img" aria-label="Lower mid-deck service cassette">
<defs><linearGradient id="shell" x2="0" y2="1"><stop stop-color="#294542"/><stop offset=".5" stop-color="#122427"/><stop offset="1" stop-color="#0a1518"/></linearGradient><linearGradient id="rail"><stop stop-color="#9fd4c0"/><stop offset=".45" stop-color="#456e65"/><stop offset="1" stop-color="#172a2b"/></linearGradient></defs>
<path d="M18 14h324l10 10v112l-10 10H18L8 136V24Z" fill="#081214" stroke="#526e63" stroke-width="2"/>
<rect x="18" y="24" width="324" height="96" rx="8" fill="url(#shell)" stroke="url(#rail)" stroke-width="2"/>
<path d="M28 36h304M28 108h304" stroke="#9fd4c0" stroke-opacity=".2"/>
<path d="M40 42h104v48H40zM216 42h104v48H216z" fill="#0b171a" stroke="#648274"/>
<path d="M151 38h58v56h-58z" fill="#142a2b" stroke="#67c8d5" stroke-opacity=".65"/>
<path d="M157 49h46M157 59h30M157 69h39M157 79h24" stroke="#67c8d5" stroke-opacity=".6" stroke-width="2"/>
<path d="M48 52h78M48 64h52M48 76h68M232 52h78M232 64h54M232 76h70" stroke="#526e63" stroke-width="3"/>
<circle cx="72" cy="101" r="8" fill="#0b1517" stroke="#ef8b45"/><circle cx="72" cy="101" r="3" fill="#ffd083"/>
<circle cx="288" cy="101" r="8" fill="#0b1517" stroke="#67c8d5"/><circle cx="288" cy="101" r="3" fill="#b5f1ed"/>
<path d="M24 132h312M32 138h64M264 138h64" stroke="#f1b35b" stroke-opacity=".45" stroke-width="2"/>
<g fill="#0b1517" stroke="#9fd4c0"><circle cx="22" cy="28" r="3"/><circle cx="338" cy="28" r="3"/><circle cx="22" cy="132" r="3"/><circle cx="338" cy="132" r="3"/></g>
</svg>
