<svg xmlns="http://www.w3.org/2000/svg" viewBox="0 0 360 88"><defs><linearGradient id="m" x2="0" y2="1"><stop stop-color="#314f4a"/><stop offset=".45" stop-color="#0b1517"/><stop offset="1" stop-color="#1b302e"/></linearGradient><linearGradient id="e" x2="1"><stop stop-color="#67c8d5"/><stop offset=".5" stop-color="#ffd083"/><stop offset="1" stop-color="#c6a7ef"/></linearGradient></defs><rect x="3" y="3" width="354" height="82" rx="7" fill="#070d0f" stroke="#789487" stroke-width="3"/><rect x="10" y="10" width="340" height="68" rx="4" fill="url(#m)" stroke="#45645a" stroke-width="2"/><path d="M22 20h316M22 68h316" stroke="#789487" stroke-width="2"/><path d="M34 29h292v30H34z" fill="#091214" stroke="#526e63" stroke-width="2"/><path d="M44 44h272" stroke="url(#e)" stroke-width="3" stroke-dasharray="12 8" opacity=".75"/><g fill="#101a1c" stroke="#b5d3a1" stroke-width="2"><circle cx="22" cy="20" r="5"/><circle cx="338" cy="20" r="5"/><circle cx="22" cy="68" r="5"/><circle cx="338" cy="68" r="5"/></g><g fill="#ffd083"><circle cx="22" cy="20" r="2"/><circle cx="338" cy="20" r="2"/><circle cx="22" cy="68" r="2"/><circle cx="338" cy="68" r="2"/></g><path d="M10 15l12-8h36M350 15l-12-8h-36M10 73l12 8h36M350 73l-12 8h-36" fill="none" stroke="#67c8d5" stroke-width="2" opacity=".6"/></svg>