<svg xmlns="http://www.w3.org/2000/svg" viewBox="0 0 324 74" fill="none" role="img" aria-label="Upper crown launch insert">
<defs>
 <linearGradient id="shell" x1="0" y1="0" x2="0" y2="1"><stop stop-color="#294943"/><stop offset=".45" stop-color="#102326"/><stop offset="1" stop-color="#050e11"/></linearGradient>
 <linearGradient id="rail"><stop stop-color="#ffd083"/><stop offset=".5" stop-color="#789487"/><stop offset="1" stop-color="#102324"/></linearGradient>
 <filter id="glow"><feGaussianBlur stdDeviation="2" result="b"/><feMerge><feMergeNode in="b"/><feMergeNode in="SourceGraphic"/></feMerge></filter>
</defs>
<path d="M5 8h314l5 5v48l-5 5H5l-5-5V13z" fill="url(#shell)" stroke="url(#rail)" stroke-width="2"/>
<!-- left and right crown housings -->
<path d="M14 18h92v36H14z" fill="#081719" stroke="#526e63" stroke-width="2"/><path d="M218 18h92v36h-92z" fill="#081719" stroke="#526e63" stroke-width="2"/>
<path d="M23 25h52v7H23zM23 38h70v5H23z" fill="#1e3c3a"/><path d="M231 25h70v7h-70zM231 38h52v5h-52z" fill="#1e3c3a"/>
<path d="M31 22v28M51 22v28M71 22v28M91 22v28M229 22v28M249 22v28M269 22v28M289 22v28" stroke="#67c8d5" stroke-opacity=".35" stroke-width="2"/>
<!-- upper ceiling rail and brackets -->
<path d="M18 13h288" stroke="#ffd083" stroke-opacity=".7" stroke-width="3"/><path d="M28 15v10M82 15v10M242 15v10M296 15v10" stroke="#d7e8d0" stroke-opacity=".65" stroke-width="3"/>
<circle cx="28" cy="15" r="3" fill="#ef8b45" filter="url(#glow)"/><circle cx="296" cy="15" r="3" fill="#67c8d5" filter="url(#glow)"/>
<!-- protected central launch corridor -->
<path d="M112 12h100l-10 12v27l10 12H112l10-12V24z" fill="#030a0d" stroke="#304f49" stroke-width="2"/>
<path d="M124 20h76M124 54h76" stroke="#9fd4c0" stroke-opacity=".42" stroke-width="2"/><path d="M126 28h72M126 46h72" stroke="#67c8d5" stroke-opacity=".32" stroke-width="2" stroke-dasharray="4 6"/>
<path d="M106 25l14 7M218 25l-14 7M106 49l14-7M218 49l-14-7" stroke="#789487" stroke-width="3"/><circle cx="106" cy="25" r="3" fill="#ffd083"/><circle cx="218" cy="25" r="3" fill="#ffd083"/>
<circle cx="162" cy="37" r="5" fill="#fff0ba" filter="url(#glow)"/><circle cx="198" cy="37" r="5" fill="#67c8d5" filter="url(#glow)"/>
<!-- lower contact rail -->
<path d="M18 60h90M216 60h90" stroke="#67c8d5" stroke-opacity=".7" stroke-width="3"/><path d="M24 65h82M218 65h82" stroke="#ef8b45" stroke-opacity=".55" stroke-width="2"/>
<g fill="#071416" stroke="#d7e8d0"><circle cx="8" cy="13" r="3"/><circle cx="316" cy="13" r="3"/><circle cx="8" cy="61" r="3"/><circle cx="316" cy="61" r="3"/></g>
</svg>